<?xml version="1.0" encoding="utf-8"?>
<!-- Generator: Adobe Illustrator 23.0.5, SVG Export Plug-In . SVG Version: 6.00 Build 0)  -->
<svg version="1.1" id="Layer_1" xmlns="http://www.w3.org/2000/svg" xmlns:xlink="http://www.w3.org/1999/xlink" x="0px" y="0px"
	 viewBox="0 0 566.9 566.9" style="enable-background:new 0 0 566.9 566.9;" xml:space="preserve">
<style type="text/css">
	.st0{fill:url(#SVGID_1_);}
	.st1{fill:url(#SVGID_2_);}
	.st2{fill:url(#SVGID_3_);}
	.st3{fill:url(#SVGID_4_);}
	.st4{fill:#212B7E;}
</style>
<image style="display:none;overflow:visible;" width="2362" height="2362" xlink:href="لوگو هفت-- png.png"  transform="matrix(0.24 0 0 0.24 2.455567e-02 14.0142)">
</image>
<linearGradient id="SVGID_1_" gradientUnits="userSpaceOnUse" x1="202.1802" y1="182.8219" x2="250.4454" y2="182.8219">
	<stop  offset="3.409785e-07" style="stop-color:#C74B27"/>
	<stop  offset="1" style="stop-color:#F48120"/>
</linearGradient>
<path class="st0" d="M250.4,184.1c-8.6-8.5-17.2-17-25.8-25.6c-7.5,7.7-15,15.5-22.4,23.2c8.5,8.5,17.1,16.9,25.6,25.4
	C235.3,199.4,242.9,191.8,250.4,184.1z"/>
<linearGradient id="SVGID_2_" gradientUnits="userSpaceOnUse" x1="168.6815" y1="364.7213" x2="173.2772" y2="149.4872">
	<stop  offset="0" style="stop-color:#283A96"/>
	<stop  offset="0.3806" style="stop-color:#315CAC"/>
	<stop  offset="0.7746" style="stop-color:#3979BE"/>
	<stop  offset="1" style="stop-color:#3C84C5"/>
</linearGradient>
<path class="st1" d="M258.1,192c-7.4,7.8-14.9,15.6-22.3,23.3l27.2,26.6c-26.4,26.6-52.9,53.2-79.3,79.8c-40.2,0-80.4-0.1-120.5-0.1
	c-10.7,10.8-21.3,21.5-32,32.3h166l112-111.1C292.1,225.9,275.1,208.9,258.1,192z"/>
<linearGradient id="SVGID_3_" gradientUnits="userSpaceOnUse" x1="74.4402" y1="249.488" x2="220.6568" y2="249.488">
	<stop  offset="3.409785e-07" style="stop-color:#C74B27"/>
	<stop  offset="1" style="stop-color:#F48120"/>
</linearGradient>
<path class="st2" d="M194.7,188.7c-40.1,40.5-80.2,81-120.2,121.5l51.5,0.1c31.6-32,63.2-64,94.8-96
	C212,205.8,203.3,197.2,194.7,188.7z"/>
<linearGradient id="SVGID_4_" gradientUnits="userSpaceOnUse" x1="383.4306" y1="369.3066" x2="388.0263" y2="154.0726">
	<stop  offset="0" style="stop-color:#283A96"/>
	<stop  offset="0.3806" style="stop-color:#315CAC"/>
	<stop  offset="0.7746" style="stop-color:#3979BE"/>
	<stop  offset="1" style="stop-color:#3C84C5"/>
</linearGradient>
<path class="st3" d="M547.6,353.9L420.4,225.9c-32.7,32-65.4,63.9-98,95.9c-7.9,0-15.8,0-23.7,0c36.5-36,73-72.1,109.5-108.1
	L289.9,93.8l-58,57.4l84.6,84.7l33.3-32.3c3.8,3.7,7.7,7.4,11.5,11.1c-47.1,46.4-94.2,92.8-141.3,139.2
	C329.2,353.9,438.4,353.9,547.6,353.9z M384.1,306.5c3.7,3.8,7.5,7.6,11.3,11.4c1.3,1.3,2.6,2.6,3.9,3.9c-10.3,0-20.6,0-30.8,0
	C373.7,316.6,378.9,311.5,384.1,306.5z M419.3,272.1c16.3,16.5,32.7,33,49,49.5c-8.8,0-17.6,0.1-26.4,0.1c-12-12.2-24-24.4-36-36.6
	C410.4,280.8,414.9,276.5,419.3,272.1z M326.9,182.3l-12.5,12.5l-37.7-37.7l12.4-12.6L326.9,182.3z"/>
<g>
	<path class="st4" d="M26.6,391.6l10,2.9c-0.5,2-0.9,3.7-1.2,5.1c-0.1,0.4-0.2,0.8-0.2,1.2s0.1,0.6,0.3,0.8c0.2,0.2,0.6,0.3,1.1,0.3
		H61c1.2,0,2-0.2,2.4-0.7c0.4-0.5,0.6-1.2,0.6-2.2v-5.4h10.4v6.2c0,0.6,0.3,1.1,0.7,1.4s1.2,0.5,2.2,0.5h2.2v11.6
		c-2.3,0-4.1,0-5.3-0.1c-1.2-0.1-2.1-0.2-2.7-0.4s-1.2-0.6-1.7-1.1c-0.9,0.6-1.8,1-2.8,1.2c-1,0.2-2,0.4-3.1,0.4
		c-1.1,0.1-2.1,0.1-3.2,0.1H42.8c-2.3,0-4.2,0-5.6-0.1c-1.4,0-2.7-0.1-3.7-0.3c-2.9-0.5-5.1-1.9-6.7-4.2c-0.7-1-1.1-2.2-1.5-3.6
		c-0.3-1.4-0.5-2.9-0.5-4.4c0-0.9,0.1-1.7,0.2-2.5c0.4-2.6,0.9-4.8,1.5-6.6C26.6,391.7,26.6,391.7,26.6,391.6L26.6,391.6z
		 M49.6,388.2l-5.6,5.6l-5.6-5.6l5.6-5.6L49.6,388.2z M61.5,388.2l-5.6,5.6l-5.6-5.6l5.6-5.6L61.5,388.2z"/>
	<path class="st4" d="M107.4,401.7h3.1v11.6H105c-1.9,0-3.6-0.1-5.2-0.3c-1.6-0.2-3.4-0.5-5.3-1c-1.7,0.5-3.4,0.8-5.1,1
		c-1.7,0.2-3.5,0.3-5.4,0.3h-5.6v-11.6h3.2c-0.3-1.1-0.4-2.2-0.4-3.4c0-3.8,1.2-7,3.7-9.8c2.5-2.7,5.7-4.1,9.6-4.1
		c3.8,0,7,1.4,9.6,4.1c2.5,2.7,3.7,6,3.7,9.8C107.8,399.6,107.6,400.7,107.4,401.7z M100.4,375.7l-5.9,5.9l-5.9-5.9l5.9-5.9
		L100.4,375.7z M94.5,401.5c0.1,0,0.4-0.1,0.7-0.2s0.7-0.3,1.2-0.6c0.4-0.3,0.8-0.6,1.1-1c0.3-0.4,0.5-1,0.5-1.6
		c0-0.2,0-0.5-0.1-0.9c-0.1-0.4-0.3-0.8-0.5-1.3c-0.2-0.4-0.6-0.8-1-1.1c-0.4-0.3-1-0.5-1.8-0.5c-0.7,0-1.3,0.2-1.8,0.5
		s-0.8,0.7-1,1.1c-0.2,0.4-0.4,0.8-0.5,1.3c-0.1,0.4-0.1,0.7-0.1,0.9c0,0.6,0.2,1.2,0.5,1.6c0.3,0.4,0.7,0.8,1.1,1
		c0.4,0.3,0.8,0.4,1.2,0.6S94.3,401.5,94.5,401.5z"/>
	<path class="st4" d="M147.2,389.9c3.1,3.1,5.1,6,6,8.7c0.5,1.5,0.8,2.9,0.8,4.2c0,0.9-0.1,1.8-0.4,2.7c-0.4,1.4-1.1,2.7-2.3,4
		c-1.1,1.3-2.7,2.3-4.8,3.1c-1.7,0.7-3.9,1-6.5,1c-0.5,0-0.9,0-1.4,0c-4.2-0.3-7.5-0.6-9.8-0.9l-3.5-0.5c-1.7,0.5-3.4,0.8-5.1,1
		c-1.7,0.2-3.5,0.3-5.4,0.3h-5.6l0-11.6h3.2c-0.3-1.1-0.4-2.2-0.4-3.3c0-3.8,1.2-7,3.7-9.8c2.5-2.7,5.7-4.1,9.6-4.1
		c2.9,0,5.4,0.8,7.6,2.4l5.4-5.4c0.1,0,0.5,0.5,1.4,1.3c0.9,0.8,2,1.9,3.3,3.2S145.9,388.6,147.2,389.9z M125.5,401.5
		c0.1,0,0.3-0.1,0.7-0.2s0.7-0.3,1.2-0.6c0.4-0.3,0.8-0.6,1.1-1c0.3-0.4,0.5-0.9,0.5-1.6c0-0.2,0-0.5-0.1-0.9
		c-0.1-0.4-0.3-0.8-0.5-1.2c-0.2-0.4-0.6-0.8-1-1.1c-0.4-0.3-1-0.5-1.8-0.5c-0.7,0-1.3,0.2-1.8,0.5s-0.8,0.7-1,1.1
		c-0.2,0.4-0.4,0.8-0.5,1.2c-0.1,0.4-0.1,0.7-0.1,0.9c0,0.6,0.2,1.2,0.5,1.6s0.7,0.8,1.1,1c0.4,0.3,0.8,0.4,1.2,0.6
		S125.4,401.5,125.5,401.5z M143.3,401.2c0-0.1,0-0.1,0-0.1c0-0.3-0.2-0.7-0.6-1.2c-0.4-0.5-0.9-1.1-1.6-1.7
		c-0.6-0.6-1.2-1.1-1.7-1.5l-0.8-0.6c0.1,0.8,0.2,1.5,0.2,2.3c0,1.2-0.1,2.3-0.4,3.4l-0.1,0.3c0.7,0.2,1.4,0.4,2.1,0.4
		c0.4,0,0.9-0.1,1.5-0.2C142.6,402.1,143,401.8,143.3,401.2z"/>
	<path class="st4" d="M209.9,385.7c0.9,0,1.8,0.1,2.7,0.2c0.9,0.2,1.8,0.4,2.8,0.6l-2.6,10.1c-1.2-0.4-2.4-0.7-3.6-0.7
		c-1,0-2,0.2-2.9,0.6s-1.8,1-2.5,1.9c-0.7,0.9-1.2,2.1-1.5,3.7c1.6,0.4,2.9,0.8,4.1,1.1c2,0.5,3.6,0.9,4.7,1.3
		c1.4,0.5,2.4,1.2,3,2.3c0.6,1,0.9,2.3,0.9,3.7v0.1c0,2.8-0.4,5.2-1.1,7.1c-0.7,1.9-1.6,3.5-2.7,4.7c-1.1,1.2-2.4,2.1-3.7,2.8
		c-1.4,0.6-2.7,1.1-4.1,1.3s-2.6,0.3-3.8,0.3h-7.8c-2.9,0-5.3-0.5-7.4-1.5c-2.1-1-3.8-2.4-5.1-4.1s-2.3-3.5-3-5.5c-0.7-2-1-4-1-5.9
		c0-3.2,0.4-6,1.1-8.6c0.8-2.5,1.8-5,3-7.4l9.3,4.6c-0.9,1.8-1.7,3.6-2.2,5.4c-0.6,1.7-0.8,3.4-0.8,5.1c0,1.8,0.3,3.2,0.9,4.1
		c0.6,0.9,1.3,1.6,2.3,1.9s2,0.5,3.1,0.5h7.8c1.4,0,2.4-0.1,3.2-0.4c0.7-0.3,1.3-0.6,1.5-1c0.3-0.4,0.4-0.7,0.4-1.1
		c-0.1,0-0.7-0.2-1.9-0.5s-2.4-0.7-3.9-1s-3.3-0.9-5.6-1.5c-0.3-1.3-0.6-2.6-0.8-3.7c-0.2-1.1-0.3-2.3-0.3-3.6
		c0-1.4,0.2-2.9,0.5-4.4c0.2-0.7,0.5-1.6,0.9-2.6c0.5-1,1.1-2.1,1.9-3.3c0.8-1.1,1.9-2.2,3.2-3.2c1.3-1,2.8-1.8,4.6-2.4
		S207.5,385.7,209.9,385.7z"/>
	<path class="st4" d="M237.1,393.7v13.6c0,2.8-0.4,5.5-1.1,8.1c-0.7,2.6-1.8,4.7-3.1,6.2c-1.6,1.8-3.6,3.2-6,4.1
		c-2.3,0.9-4.9,1.3-7.8,1.3h-2.5v-11.6h2.5c2.9,0,4.9-0.6,6-1.9c0.7-0.8,1.1-1.8,1.3-3c0.2-1.2,0.3-2.3,0.3-3.3v-13.6H237.1z"/>
	<path class="st4" d="M251.8,375.5v37.9h-10.4v-37.9H251.8z"/>
	<path class="st4" d="M277,401.7h0.9v11.6h-1.2c-0.8,0-1.5-0.1-2.3-0.3c-0.3,1.2-0.7,2.5-1.3,4.1c-0.6,1.6-1.4,3-2.5,4.4
		c-1.6,1.8-3.6,3.2-6,4.1c-2.3,0.9-4.9,1.3-7.7,1.3h-2.5v-11.6h2.5c2.9,0,4.9-0.6,6-1.9c0.7-0.8,1.1-1.8,1.3-3
		c0.2-1.2,0.3-2.3,0.3-3.3v-13.6h10.4v6.1c0,0.5,0.2,1,0.5,1.4C275.8,401.5,276.3,401.7,277,401.7z M275.7,384.6l-5.9,5.9l-5.9-5.9
		l5.9-5.9L275.7,384.6z"/>
	<path class="st4" d="M304.7,400.9c0,2.4-0.6,4.5-1.8,6.4c-1.2,1.9-2.9,3.4-5.2,4.4c-2.3,1.1-5,1.6-8.3,1.6h-12.3v-11.6h2.4
		c-0.1-0.9-0.1-1.8-0.1-2.7c0-2.8,0.4-5.2,1.2-7c0.8-1.9,1.8-3.3,3.1-4.4c1.2-1.1,2.6-1.8,4-2.3c1.4-0.4,2.7-0.7,3.9-0.7
		c3.6,0,6.8,1.4,9.4,4.1c2.5,2.8,3.7,6.2,3.7,10.3V400.9z M297.6,375.6l-5.9,5.9l-5.9-5.9l5.9-5.9L297.6,375.6z M291.7,395.6
		c-0.8,0-1.5,0.3-2.1,0.8s-0.8,1.2-0.8,2c0,0.4,0,0.8,0.1,1.2c0.1,0.4,0.3,0.7,0.6,0.9c0.3,0.2,0.7,0.3,1.3,0.3h3.9v-2.4
		c0-0.8-0.3-1.5-0.9-2S292.5,395.6,291.7,395.6z"/>
	<path class="st4" d="M319.7,375.5v37.9h-10.4v-37.9H319.7z"/>
	<path class="st4" d="M364.1,387c2.2,0,4,0.4,5.5,1.1c1.5,0.7,2.8,1.7,3.7,2.9c1,1.2,1.7,2.4,2.3,3.7c0.5,1.3,0.9,2.6,1.1,3.8
		c0.2,1.2,0.3,2.2,0.3,3c0,2-0.3,3.8-1,5.4c-0.7,1.6-1.5,2.9-2.6,4c-1.1,1.1-2.2,1.9-3.5,2.5c-1.3,0.6-2.5,0.9-3.7,0.9
		c-0.6,0-1.2-0.1-1.8-0.3c-1.7-0.5-3.5-1.1-5.4-1.9c-1.9-0.8-4.3-1.9-7-3.2c0,3.5,0,7,0,10.5s0,5.9,0,7.1c0,0.3,0,0.5,0,0.5h-10.4
		v-28.3l6.5-3.7c0.7,0.4,1.2,0.7,1.7,0.9c0.4,0.2,0.9,0.5,1.2,0.7c0.4,0.2,0.6,0.3,0.7,0.4c0.1-0.4,0.4-1.1,0.8-1.9
		c0.4-0.8,0.9-1.7,1.5-2.6c0.6-0.9,1.4-1.8,2.4-2.6c0.9-0.8,2-1.5,3.3-2.1C361,387.2,362.5,387,364.1,387z M366.1,403.9
		c0.5,0,0.9-0.3,1.2-0.8c0.3-0.5,0.4-1.2,0.4-1.9c0-0.3,0-0.7-0.1-1c-0.2-1-0.5-1.8-1.1-2.4c-0.6-0.6-1.2-1-2.1-1
		c-0.6,0-1.2,0.2-1.6,0.6c-0.4,0.4-0.8,1-1.2,1.7c-0.3,0.7-0.7,1.5-1,2.5c0.9,0.4,1.8,0.8,2.5,1.1c0.7,0.3,1.4,0.7,2.2,1
		C365.7,403.8,365.9,403.9,366.1,403.9z"/>
	<path class="st4" d="M401,401.7h0.9v11.6h-1.2c-0.8,0-1.5-0.1-2.3-0.3c-0.3,1.2-0.7,2.5-1.3,4.1c-0.6,1.6-1.4,3-2.5,4.4
		c-1.6,1.8-3.6,3.2-6,4.1c-2.3,0.9-4.9,1.3-7.7,1.3h-2.5v-11.6h2.5c2.9,0,4.9-0.6,6-1.9c0.7-0.8,1.1-1.8,1.3-3
		c0.2-1.2,0.3-2.3,0.3-3.3v-13.6h10.4v6.1c0,0.5,0.2,1,0.5,1.4S400.4,401.7,401,401.7z"/>
	<path class="st4" d="M417.3,390.2c0.6,3.1,1,5.7,1.4,7.7c0.3,1.3,0.4,2.5,0.4,3.7c0,0.6,0,1.1-0.1,1.7c-0.1,1-0.4,2.1-0.7,3.2
		c-0.4,1.1-0.8,2-1.4,2.8c-1.2,1.5-2.8,2.7-4.7,3.4c-1.4,0.5-3.1,0.7-5.1,0.7h-6.3v-11.6h6.3c0.6,0,1-0.1,1.3-0.2
		c0.2-0.2,0.3-0.4,0.3-0.7c0-0.3,0-0.6-0.1-0.9l-1.3-6.6L417.3,390.2z M416.4,380.7l-5.9,5.9l-5.9-5.9l5.9-5.9L416.4,380.7z"/>
	<path class="st4" d="M451.8,381.6l0.2,0.2c0.7,0.8,3.3,3.7,7.8,8.6c1.2,1.2,2.2,2.5,3.2,4.1c1,1.5,1.6,3.6,1.8,6
		c0,0.4,0.1,0.8,0.1,1.2c0,1.5-0.2,2.7-0.5,3.9c-0.4,1.1-0.8,2.1-1.4,2.9c-0.6,0.8-1.2,1.5-1.8,2.1c-1.2,1-2.5,1.8-3.9,2.2
		c-1.4,0.4-3.1,0.6-4.9,0.6s-3.5-0.2-4.9-0.6c-1.4-0.4-2.7-1.2-3.9-2.3c-1-0.9-1.8-2.2-2.5-3.8s-1-3.5-1-5.4v-0.6
		c0.2-2.4,0.6-4.4,1.4-6c0.8-1.6,1.7-2.9,2.6-3.8c0.4-0.4,0.8-0.8,1.1-1.2c-0.2-0.2-0.4-0.4-0.5-0.6c-0.3-0.3-0.5-0.5-0.5-0.5
		L451.8,381.6z M452.2,402.8c0.3,0,0.7-0.1,1.1-0.3c0.4-0.2,0.8-0.4,1.1-0.8c0.3-0.4,0.5-0.9,0.5-1.5c0-0.3-0.1-0.7-0.4-1.1
		c-0.3-0.4-0.6-0.9-1-1.3c-0.4-0.4-0.8-0.9-1.4-1.5c-0.5,0.5-1,1-1.3,1.4c-0.3,0.4-0.6,0.8-0.9,1.3c-0.3,0.4-0.4,0.9-0.4,1.2
		c0,0.6,0.2,1.1,0.5,1.5s0.7,0.6,1.1,0.8C451.6,402.8,451.9,402.8,452.2,402.8z"/>
	<path class="st4" d="M473.3,415.4c2.1,0,3.8-0.1,5.2-0.2c1.4-0.1,2.4-0.3,2.9-0.7s0.9-0.7,1-1.2h-2.2c-2.3-0.1-4.3-0.6-6.1-1.5
		c-1.8-1-3.3-2.3-4.4-4.1c-1.1-1.8-1.7-3.9-1.7-6.5c0-2.8,0.4-5.2,1.2-7c0.8-1.9,1.8-3.3,3.1-4.4c1.3-1.1,2.6-1.9,4-2.3
		c1.4-0.4,2.7-0.7,3.9-0.7c3.6,0,6.8,1.4,9.4,4.1c2.5,2.8,3.7,6.2,3.7,10.3v9.5c0,2.4-0.4,4.4-1,6.1s-1.5,3.1-2.5,4.3
		c-1,1.2-2,2.2-3.1,2.9c-0.6,0.4-1.4,0.9-2.5,1.3c-1.1,0.5-2.6,0.9-4.5,1.2c-1.7,0.3-3.9,0.4-6.7,0.4h-2.8v-11.5H473.3z
		 M479.4,401.8h3.9v-2.4c0-0.8-0.3-1.5-0.9-2c-0.6-0.5-1.3-0.8-2.1-0.8c-0.8,0-1.5,0.3-2.1,0.8s-0.8,1.2-0.8,2c0,0.4,0,0.8,0.1,1.2
		c0.1,0.4,0.3,0.7,0.6,0.9S478.8,401.8,479.4,401.8z"/>
	<path class="st4" d="M517.3,401.7h0.9v11.6H517c-0.8,0-1.5-0.1-2.3-0.3c-0.3,1.2-0.7,2.5-1.3,4.1c-0.6,1.6-1.4,3-2.5,4.4
		c-1.6,1.8-3.6,3.2-6,4.1c-2.3,0.9-4.9,1.3-7.7,1.3h-2.5v-11.6h2.5c2.9,0,4.9-0.6,6-1.9c0.7-0.8,1.1-1.8,1.3-3
		c0.2-1.2,0.3-2.3,0.3-3.3v-13.6h10.4v6.1c0,0.5,0.2,1,0.5,1.4C516.1,401.5,516.6,401.7,517.3,401.7z"/>
	<path class="st4" d="M520.6,389.6l1.1-8.8l22.2-10.1l4.3,9.5l-15.2,7c0.4,0.4,0.8,0.9,1.3,1.3c1.1,1.1,2.3,2.3,3.7,3.8
		c0.3,0.3,0.5,0.5,0.7,0.8c0.9,1,1.8,1.9,2.4,2.7c0.7,0.8,1.2,1.6,1.7,2.5c0.6,1.2,0.9,2.3,1.1,3.3c0.1,0.7,0.2,1.5,0.2,2.1
		c0,0.3,0,0.7-0.1,1.2c0,0.6-0.3,1.4-0.7,2.5c-0.3,0.8-0.9,1.7-1.8,2.6c-0.9,0.9-2.2,1.7-3.9,2.3c-1.9,0.6-4.3,1-7.2,1h-13.5v-11.6
		h13.5c0.5,0,1.1,0,1.8,0c0.7,0,1.2-0.1,1.5-0.1c-1.6-1.8-3.3-3.6-5.2-5.3c-1.9-1.7-3.6-3.2-5.1-4.4S521,389.9,520.6,389.6
		L520.6,389.6z M522.1,378.3l0.3-3.6l19-8.3l1.3,2.8L522.1,378.3z"/>
</g>
</svg>
