<?xml version="1.0" encoding="utf-8"?>
<!-- Generator: Adobe Illustrator 23.0.5, SVG Export Plug-In . SVG Version: 6.00 Build 0)  -->
<svg version="1.1" id="Layer_1" xmlns="http://www.w3.org/2000/svg" xmlns:xlink="http://www.w3.org/1999/xlink" x="0px" y="0px"
	 viewBox="0 0 141.7 56.7" style="enable-background:new 0 0 141.7 56.7;" xml:space="preserve">
<style type="text/css">
	.st0{fill:#FFFFFF;}
	.st1{fill:#E07700;}
</style>
<rect x="1.6" y="8" class="st0" width="137.5" height="36.1"/>
<path class="st1" d="M77.1,44.1H54.9C58.8,32.1,62.7,20,66.6,8c7.4,0,14.7,0,22.1,0C84.8,20,81,32.1,77.1,44.1z"/>
<g>
	<path class="st0" d="M71.8,25.2c-2.8,0-5,2.3-5,5c0,0.2,0,0.3,0,0.5c1.5,0.9,3.2,1.4,5,1.4c1.8,0,3.5-0.5,5-1.4c0-0.2,0-0.3,0-0.5
		C76.8,27.4,74.6,25.2,71.8,25.2L71.8,25.2z M71.8,25.2"/>
	<path class="st0" d="M74.8,22c0-1.7-1.4-3.2-3.2-3.2c-1.7,0-3.2,1.4-3.2,3.2c0,1.7,1.4,3.2,3.2,3.2C73.3,25.1,74.8,23.7,74.8,22
		L74.8,22z M74.8,22"/>
</g>
<g>
	<path d="M103.6,27.5c-0.2,0-0.4,0-0.6-0.1c-0.2,0-0.5-0.1-0.7-0.2c-0.2-0.1-0.4-0.1-0.6-0.2c-0.2-0.1-0.3-0.2-0.4-0.2l0.4-1
		c0.1,0.1,0.3,0.2,0.5,0.2c0.2,0.1,0.4,0.1,0.6,0.2s0.4,0.1,0.6,0.1s0.4,0,0.6,0c0.2,0,0.4-0.1,0.6-0.1c0.2-0.1,0.3-0.2,0.4-0.3
		c0.1-0.1,0.1-0.3,0-0.6c0-0.2-0.1-0.3-0.2-0.5c-0.1-0.2-0.2-0.4-0.3-0.6s-0.3-0.4-0.4-0.5c-0.1-0.2-0.3-0.3-0.5-0.5
		c-0.2-0.2-0.3-0.3-0.5-0.4c-0.2-0.1-0.3-0.2-0.5-0.3l0.4-0.9c0.2,0.1,0.4,0.2,0.6,0.4c0.2,0.1,0.4,0.3,0.6,0.5
		c0.2,0.2,0.4,0.4,0.6,0.6c0.2,0.2,0.3,0.4,0.5,0.7c0.1,0.2,0.3,0.5,0.4,0.7c0.1,0.2,0.2,0.5,0.2,0.7c0,0.2,0.1,0.4,0.1,0.5
		c0,0.2,0,0.3,0,0.4c0,0.1-0.1,0.2-0.1,0.3c0,0.1-0.1,0.2-0.2,0.2c-0.1,0.2-0.3,0.3-0.4,0.4s-0.4,0.2-0.5,0.3
		c-0.2,0.1-0.4,0.1-0.6,0.2C104,27.5,103.8,27.5,103.6,27.5z"/>
	<path d="M107,30.2c0.5-0.1,1-0.3,1.4-0.4c0.4-0.2,0.8-0.4,1.1-0.6c0.3-0.2,0.5-0.5,0.7-0.8s0.3-0.5,0.3-0.8c-0.1,0-0.3,0-0.5,0
		c-0.2,0-0.4,0-0.6,0c-0.8,0-1.3-0.3-1.7-0.7c-0.2-0.2-0.3-0.4-0.3-0.7c0-0.3,0-0.5,0-0.8s0.1-0.5,0.2-0.8c0.1-0.3,0.2-0.5,0.4-0.7
		c0.2-0.2,0.4-0.4,0.6-0.5c0.2-0.1,0.4-0.2,0.6-0.2c0.5,0,0.9,0.2,1.4,0.7c0.2,0.2,0.3,0.4,0.5,0.7s0.2,0.5,0.3,0.8
		c0.1,0.3,0.1,0.6,0.2,0.9c0,0.3,0,0.6,0,0.9c0,0.4-0.1,0.7-0.3,1.1c-0.1,0.3-0.3,0.6-0.5,0.9c-0.2,0.3-0.4,0.5-0.7,0.8
		s-0.6,0.4-0.9,0.6c-0.3,0.2-0.6,0.3-1,0.4c-0.3,0.1-0.7,0.2-1.1,0.3L107,30.2z M109.3,24.1c-0.1,0-0.2,0-0.3,0.1
		c-0.1,0.1-0.2,0.2-0.2,0.3c-0.1,0.1-0.1,0.3-0.2,0.4s-0.1,0.3-0.1,0.4c0,0.1,0,0.3,0,0.4s0.1,0.2,0.1,0.3c0.1,0.1,0.1,0.1,0.2,0.2
		s0.2,0.1,0.3,0.1c0.1,0,0.2,0,0.3,0.1c0.1,0,0.2,0,0.2,0c0.2,0,0.4,0,0.6,0c0.2,0,0.3,0,0.5,0c0-0.2,0-0.4-0.1-0.6
		c0-0.2-0.1-0.4-0.2-0.6c-0.1-0.2-0.1-0.3-0.2-0.5c-0.1-0.1-0.2-0.3-0.3-0.4c0,0-0.1-0.1-0.1-0.1c0,0-0.1-0.1-0.1-0.1
		c-0.1,0-0.1-0.1-0.2-0.1C109.4,24.1,109.4,24.1,109.3,24.1z"/>
	<path d="M114.8,24.1c0,0.2,0.1,0.3,0.1,0.5s0.1,0.3,0.1,0.5c0,0.2,0.1,0.3,0.1,0.5c0,0.2,0.1,0.3,0.1,0.5c0,0.2,0.1,0.3,0.1,0.5
		c0,0.2,0,0.3,0,0.5c0,0.3,0,0.6-0.1,0.9c-0.1,0.3-0.2,0.6-0.4,0.8c-0.2,0.3-0.3,0.5-0.6,0.8c-0.2,0.2-0.5,0.5-0.7,0.7
		c-0.3,0.2-0.5,0.4-0.8,0.6c-0.3,0.2-0.6,0.3-0.9,0.5l-0.5-0.9c0.4-0.2,0.7-0.4,1.1-0.6c0.3-0.2,0.7-0.5,0.9-0.8
		c0.3-0.3,0.5-0.6,0.6-0.9c0.2-0.3,0.2-0.6,0.2-1c0-0.1,0-0.3,0-0.4s-0.1-0.3-0.1-0.4c0-0.1-0.1-0.3-0.1-0.4c0-0.1-0.1-0.3-0.1-0.4
		c-0.1-0.3-0.2-0.6-0.3-0.9L114.8,24.1z"/>
	<path d="M116.5,30.2c0.5-0.1,1-0.3,1.4-0.4c0.4-0.2,0.8-0.4,1.1-0.6c0.3-0.2,0.5-0.5,0.7-0.8s0.3-0.5,0.3-0.8c-0.1,0-0.3,0-0.5,0
		c-0.2,0-0.4,0-0.6,0c-0.8,0-1.3-0.3-1.7-0.7c-0.2-0.2-0.3-0.4-0.3-0.7c0-0.3,0-0.5,0-0.8s0.1-0.5,0.2-0.8c0.1-0.3,0.2-0.5,0.4-0.7
		c0.2-0.2,0.4-0.4,0.6-0.5c0.2-0.1,0.4-0.2,0.6-0.2c0.5,0,0.9,0.2,1.4,0.7c0.2,0.2,0.3,0.4,0.5,0.7s0.2,0.5,0.3,0.8
		c0.1,0.3,0.1,0.6,0.2,0.9c0,0.3,0,0.6,0,0.9c0,0.4-0.1,0.7-0.3,1.1c-0.1,0.3-0.3,0.6-0.5,0.9c-0.2,0.3-0.4,0.5-0.7,0.8
		s-0.6,0.4-0.9,0.6c-0.3,0.2-0.6,0.3-1,0.4c-0.3,0.1-0.7,0.2-1.1,0.3L116.5,30.2z M118.8,24.1c-0.1,0-0.2,0-0.3,0.1
		c-0.1,0.1-0.2,0.2-0.2,0.3c-0.1,0.1-0.1,0.3-0.2,0.4s-0.1,0.3-0.1,0.4c0,0.1,0,0.3,0,0.4s0.1,0.2,0.1,0.3c0.1,0.1,0.1,0.1,0.2,0.2
		s0.2,0.1,0.3,0.1c0.1,0,0.2,0,0.3,0.1c0.1,0,0.2,0,0.2,0c0.2,0,0.4,0,0.6,0c0.2,0,0.3,0,0.5,0c0-0.2,0-0.4-0.1-0.6
		c0-0.2-0.1-0.4-0.2-0.6c-0.1-0.2-0.1-0.3-0.2-0.5c-0.1-0.1-0.2-0.3-0.3-0.4c0,0-0.1-0.1-0.1-0.1c0,0-0.1-0.1-0.1-0.1
		c-0.1,0-0.1-0.1-0.2-0.1C118.9,24.1,118.8,24.1,118.8,24.1z"/>
</g>
<g>
	<path d="M12.5,31.3l-0.2-4.8c0,0,0-0.1,0-0.1c0-0.1,0-0.2,0-0.3c0-0.1,0.1-0.2,0.1-0.3c0.1-0.1,0.1-0.2,0.3-0.3
		c0,0,0.1-0.1,0.2-0.1s0.1-0.1,0.2-0.1c0.1,0,0.2,0,0.3,0c0.1,0,0.2,0,0.3,0.1c0.1-0.2,0.1-0.3,0.2-0.5c0.1-0.2,0.2-0.3,0.3-0.5
		s0.2-0.3,0.3-0.5c0.1-0.2,0.2-0.3,0.4-0.4s0.3-0.2,0.5-0.3s0.3-0.1,0.5-0.1c0.3,0,0.5,0.1,0.8,0.2c0.2,0.1,0.4,0.3,0.6,0.5
		c0.1,0.2,0.2,0.4,0.3,0.6c0.1,0.2,0.1,0.4,0.1,0.7c0,0.2,0,0.5,0,0.7s-0.1,0.5-0.2,0.7c-0.1,0.2-0.2,0.4-0.4,0.5
		c-0.2,0.2-0.3,0.3-0.6,0.3c-0.1,0-0.2,0-0.3,0c-0.1,0-0.3,0-0.4-0.1s-0.3-0.1-0.5-0.2c-0.2-0.1-0.4-0.2-0.7-0.3l-1.3-0.5
		c0,0,0,0,0,0c0,0,0,0,0,0.1s0,0.1,0,0.2c0,0.1,0,0.2,0,0.4c0,0.2,0,0.4,0,0.6c0,0.2,0,0.5,0,0.9c0,0.3,0,0.8,0,1.2s0,1,0.1,1.6
		H12.5z M15.1,25.8c0.2,0.1,0.3,0.1,0.5,0.2c0.2,0.1,0.3,0.1,0.4,0.2c0.1,0,0.3,0.1,0.4,0.1c0.1,0,0.2,0,0.2,0
		c0.1-0.1,0.1-0.2,0.1-0.3s0.1-0.3,0.1-0.4c0-0.1,0-0.3,0-0.4c0-0.1,0-0.3-0.1-0.4c-0.1-0.2-0.1-0.3-0.2-0.4
		c-0.1-0.1-0.2-0.2-0.2-0.2c-0.1,0-0.1-0.1-0.2-0.1c-0.1,0-0.1,0-0.2,0c-0.1,0-0.3,0.1-0.4,0.2c-0.1,0.2-0.3,0.4-0.4,0.7
		c-0.1,0.1-0.1,0.2-0.2,0.3s-0.1,0.2-0.1,0.3L15.1,25.8z"/>
	<path d="M21.5,27.5c-0.4,0-0.7,0-1-0.1c-0.3-0.1-0.5-0.2-0.7-0.4c-0.1-0.1-0.2-0.2-0.3-0.4c-0.1-0.1-0.1-0.3-0.1-0.4
		c0-0.1,0-0.3,0-0.4s0-0.2,0-0.3c0,0,0-0.1,0-0.2c0-0.1,0-0.3,0-0.5c0-0.2,0-0.5,0-0.7c0-0.3,0-0.6,0-0.9c0-0.3,0-0.6,0-0.9
		c0-0.3,0-0.6,0-0.9s0-0.6-0.1-0.8c0-0.3,0-0.5-0.1-0.6l1-0.2c0,0.2,0.1,0.4,0.1,0.7s0,0.5,0.1,0.8c0,0.3,0,0.6,0,0.9
		c0,0.3,0,0.6,0,1v2.5c0,0.2,0,0.3,0,0.4c0,0.1,0.1,0.2,0.1,0.3c0.1,0.1,0.2,0.1,0.4,0.2c0.2,0,0.3,0.1,0.6,0.1h0.1v1H21.5z"/>
	<path d="M21.4,26.5H22c0.2,0,0.4,0,0.6,0c0.2,0,0.3,0,0.5-0.1c0.1,0,0.3-0.1,0.4-0.2c0.1-0.1,0.2-0.2,0.3-0.3
		c0-0.1,0.1-0.2,0.1-0.3c0-0.1,0-0.2,0-0.4s0-0.3-0.1-0.5c0-0.2-0.1-0.3-0.2-0.5L23,23.1l0.9-0.5c0,0,0,0,0,0.1
		c0,0.1,0.1,0.2,0.1,0.3s0.1,0.2,0.2,0.4c0.1,0.2,0.1,0.3,0.2,0.5c0.2,0.5,0.2,0.9,0.3,1.3c0,0.4,0,0.7-0.1,1
		c-0.1,0.2-0.2,0.4-0.4,0.6c-0.2,0.2-0.3,0.3-0.5,0.4c-0.2,0.1-0.4,0.2-0.7,0.2c-0.2,0-0.5,0.1-0.8,0.1h-0.8V26.5z M23.9,21
		l-0.9,0.9l-0.9-0.9l0.9-0.9L23.9,21z"/>
	<path d="M38.9,26.6c-0.1-0.2-0.2-0.4-0.3-0.6c-0.9,1-2.4,1.4-4.3,1.4c-1.1,0-1.9-0.1-2.6-0.4c-0.7-0.2-1.2-0.6-1.5-1.2
		c-0.1-0.2-0.2-0.3-0.2-0.5c-0.1-0.2-0.1-0.4-0.1-0.5s0-0.4,0-0.5c0-0.2,0-0.3,0.1-0.5c0.1-0.3,0.2-0.6,0.3-0.8s0.1-0.3,0.1-0.3
		l0.9,0.5c0,0,0,0,0,0.1S31,23.5,31,23.6c0,0.1-0.1,0.2-0.1,0.4s-0.1,0.3-0.1,0.4c0,0.2,0,0.3,0,0.5c0,0.2,0.1,0.3,0.2,0.5
		c0.2,0.4,0.6,0.6,1.1,0.8s1.2,0.3,2.1,0.3c0.8,0,1.4-0.1,2-0.2c0.5-0.1,1-0.3,1.3-0.6c0.2-0.1,0.3-0.3,0.4-0.4
		c0.1-0.1,0.2-0.3,0.3-0.5c0.1-0.2,0.2-0.3,0.2-0.5c0.1-0.2,0.1-0.3,0.2-0.5l1,0.3c0,0.1,0,0.1-0.1,0.2c0,0.1,0,0.2-0.1,0.3
		s0,0.2,0,0.3c0,0.1,0,0.2,0,0.2c0,0.1,0,0.3,0.1,0.5c0,0.2,0.1,0.3,0.2,0.4c0.2,0.3,0.6,0.5,1.2,0.5H41v1h-0.1
		C40,27.5,39.3,27.2,38.9,26.6z M34.4,22.4l-0.8,0.8l-0.9-0.9l0.8-0.9L34.4,22.4z M36.6,22.4l-0.8,0.9l-0.9-0.9l0.8-0.8L36.6,22.4z"
		/>
	<path d="M44.7,26.5v1h-0.1c-0.4,0-0.6-0.1-0.9-0.2c-0.2-0.1-0.4-0.3-0.6-0.5c-0.2,0.2-0.5,0.4-0.9,0.5c-0.3,0.1-0.8,0.2-1.3,0.2
		h-0.2v-1H41c0.6,0,1-0.1,1.3-0.3c0.3-0.2,0.4-0.5,0.4-0.9c0-0.2,0-0.4,0-0.6s-0.1-0.4-0.2-0.7l1-0.3c0,0.1,0.1,0.2,0.1,0.4
		c0,0.1,0,0.2,0.1,0.4c0,0.1,0,0.3,0,0.4c0,0.1,0,0.3,0,0.5c0,0.1,0,0.3,0.1,0.4c0,0.1,0.1,0.3,0.1,0.4c0.1,0.1,0.2,0.2,0.3,0.3
		c0.1,0.1,0.3,0.1,0.4,0.1H44.7z M43.5,29.4l-0.9,0.9l-0.9-0.9l0.9-0.9L43.5,29.4z"/>
	<path d="M44.5,26.5h1c0.2,0,0.4,0,0.6,0s0.4,0,0.5-0.1c0.2,0,0.3-0.1,0.4-0.2c0.1-0.1,0.2-0.2,0.3-0.3c0-0.1,0.1-0.2,0.1-0.3
		c0-0.1,0-0.2,0-0.4s0-0.3-0.1-0.5c0-0.2-0.1-0.3-0.2-0.5l-0.5-1.1l0.9-0.5c0,0,0,0,0,0.1s0.1,0.2,0.1,0.3c0.1,0.1,0.1,0.2,0.2,0.4
		c0.1,0.2,0.1,0.3,0.2,0.5c0.2,0.5,0.2,0.9,0.3,1.3s0,0.7-0.1,1c-0.1,0.2-0.2,0.4-0.4,0.6c-0.2,0.2-0.4,0.3-0.6,0.4
		c-0.2,0.1-0.5,0.2-0.7,0.2c-0.3,0-0.5,0.1-0.8,0.1h-1.2V26.5z M44.8,20.9l0.8-0.9l0.9,0.9l-0.8,0.9L44.8,20.9z M46,19.3l0.8-0.8
		l0.8,0.8l-0.8,0.8L46,19.3z M47.1,20.9l0.8-0.8l0.9,0.9l-0.8,0.8L47.1,20.9z"/>
</g>
</svg>
